<svg width="80" height="60" viewBox="0 0 80 60" fill="none" xmlns="http://www.w3.org/2000/svg">
<path fill-rule="evenodd" clip-rule="evenodd" d="M0 12V24H10H20V21.008C20 19.1 19.276 17.565 18 16.768C16.56 15.869 16 14.436 16 11.651C16 7.936 16.109 7.81 18.75 8.452C20.262 8.819 22.85 10.451 24.5 12.076C27.489 15.022 27.501 15.079 27.833 28.188C28.151 40.748 28.276 41.429 30.603 43.26C34.447 46.283 36.29 50.738 35.734 55.666L35.246 60H40H44.754L44.266 55.666C43.71 50.738 45.553 46.283 49.397 43.26C51.724 41.429 51.849 40.748 52.167 28.188C52.499 15.079 52.511 15.022 55.5 12.076C57.15 10.451 59.737 8.819 61.25 8.452C63.891 7.81 64 7.936 64 11.651C64 14.436 63.44 15.869 62 16.768C60.724 17.565 60 19.1 60 21.008V24H70H80V12V0H40H0V12ZM0 36V40H10H20V36V32H10H0V36ZM60 36V40H70H80V36V32H70H60V36ZM0 54V60H12C22.667 60 24.222 59.778 26 58C27.1 56.9 28 55.1 28 54C28 52.9 27.1 51.1 26 50C24.222 48.222 22.667 48 12 48H0V54ZM54 50C52.9 51.1 52 52.9 52 54C52 55.1 52.9 56.9 54 58C55.778 59.778 57.333 60 68 60H80V54V48H68C57.333 48 55.778 48.222 54 50Z" fill="#FDCA54"/>
</svg>
