<svg width="86" height="70" viewBox="0 0 86 70" fill="none" xmlns="http://www.w3.org/2000/svg">
<path fill-rule="evenodd" clip-rule="evenodd" d="M36.4039 0.032946C36.3853 0.0506368 36.1738 0.090427 35.9338 0.1214C35.364 0.194989 34.7697 0.336741 33.5516 0.689652C32.5612 0.976548 32.5547 0.977622 32.3625 0.879107C32.1732 0.782063 32.1574 0.783532 31.5771 0.952018C31.2513 1.04658 31.0249 1.12503 31.0739 1.12638C31.1229 1.12774 31.3864 1.06647 31.6595 0.990169C32.1878 0.842595 32.2509 0.849943 32.4824 1.08557C32.614 1.21953 32.614 1.22015 32.4999 1.39887C32.3635 1.6124 32.2159 1.68949 31.5489 1.89585C31.2713 1.9817 30.994 2.09276 30.9326 2.14267C30.7128 2.32138 30.4934 2.97487 30.6757 2.90829C30.7384 2.8854 30.7389 2.99731 30.6786 3.51763C30.5809 4.36023 30.3867 6.66376 30.3031 7.97016C30.2664 8.54525 30.211 9.36056 30.18 9.78203C30.1492 10.2034 30.1239 10.7807 30.1239 11.0648V11.5814L29.7871 11.7942C29.31 12.0956 28.8334 12.5563 28.6986 12.8465C28.6352 12.9828 28.525 13.3552 28.4537 13.6739C28.3824 13.9926 28.2899 14.2859 28.2482 14.3256C28.2064 14.3653 28.0302 14.4153 27.8566 14.4366C27.344 14.4993 26.0994 14.8053 25.6213 14.986C25.0267 15.2109 24.9944 15.1936 25.0495 14.6815C25.1046 14.1682 25.0944 13.8758 25.0121 13.6226C24.744 12.7966 24.1023 12.3222 23.2531 12.3222C22.5527 12.3222 21.6055 12.9652 21.0056 13.8478C20.7631 14.2047 20.2672 15.1977 20.2672 15.3265C20.2672 15.3512 20.1878 15.5366 20.0906 15.7384C19.9935 15.9402 19.8488 16.2524 19.7689 16.4322C19.2282 17.6494 18.5057 18.7939 17.9445 19.3221C17.4788 19.7605 16.1445 20.5616 15.5173 20.7793C15.088 20.9284 14.9265 21.0818 14.9245 21.3426C14.9206 21.8635 15.5785 22.3709 16.4917 22.5513C17.0216 22.656 17.9602 22.631 18.5085 22.4976C18.7658 22.4349 19.211 22.271 19.4978 22.1333C19.7846 21.9956 20.0373 21.9 20.0594 21.9209C20.1099 21.9686 20.1694 22.1027 20.7412 23.4566C21.3552 24.9108 21.5002 25.3086 21.5723 25.7384C21.7242 26.6438 22.1561 27.7407 22.6307 28.4268C23.0806 29.0773 23.8492 29.6377 24.6611 29.9073C24.9572 30.0056 25.1809 30.0359 25.6214 30.0371C26.2742 30.039 26.2729 30.0361 25.8045 30.4356C25.4551 30.7335 24.9267 31.4571 24.6987 31.9499C24.486 32.4098 24.265 33.3242 24.1903 34.0541C24.09 35.034 24.0826 36.8244 24.1773 37.191C24.3016 37.672 24.6795 38.373 25.0054 38.7272C25.4431 39.2027 25.7653 39.6224 26.3207 40.4409C27.0311 41.4878 27.0018 41.4421 27.5551 42.3626C27.6989 42.6018 28.5601 44.2598 28.7147 44.5951C28.7649 44.7039 28.8798 44.9964 28.97 45.2451C29.0602 45.4938 29.1526 45.7227 29.1753 45.7538C29.2569 45.8659 29.4672 46.7248 29.5277 47.1936C29.6876 48.4323 29.5742 49.2057 29.1283 49.9181L28.9092 50.2682L28.9079 51.0066C28.9064 51.8398 28.983 52.1122 29.3119 52.4435C29.8063 52.9417 30.8036 53.0055 31.3659 52.5748L31.5094 52.4649L31.8112 52.6465C32.1397 52.8442 32.639 53.0166 32.8832 53.0166C33.098 53.0166 33.5608 52.7805 33.7874 52.5553C34.0152 52.329 34.2093 51.9305 34.2553 51.5946C34.2907 51.3369 34.1333 50.8563 33.5797 49.5319C33.2833 48.823 33.0373 47.7075 32.7964 45.9799C32.64 44.8586 32.609 43.377 32.7073 41.7251C32.7758 40.5744 33.0927 39.4472 33.4291 39.158C33.5679 39.0386 33.6002 39.0608 33.8943 39.4774C34.025 39.6623 34.3076 39.9803 34.5224 40.1838C34.7373 40.3874 34.9485 40.643 34.992 40.7518C35.0872 40.9902 35.4813 41.5112 35.7316 41.7297C36.4762 42.3793 37.551 42.8097 38.8542 42.9801C39.7265 43.0941 44.2011 43.0954 45.087 42.9818C45.8011 42.8903 46.6172 42.6875 47.03 42.4989C47.896 42.1034 48.622 41.4819 48.9196 40.8814C49.0188 40.6813 49.2632 40.3713 49.5481 40.0844C49.8045 39.8261 50.0839 39.5019 50.1689 39.3637C50.2628 39.2112 50.3663 39.1127 50.4325 39.1127C50.6943 39.1127 51.0211 39.8684 51.1888 40.8616C51.2695 41.3396 51.2895 41.846 51.2893 43.4082C51.2891 45.3351 51.2423 45.9775 51.0237 47.0537C50.9921 47.2092 50.8964 47.6924 50.811 48.1276C50.6973 48.707 50.5705 49.1248 50.3375 49.6879C49.9541 50.6145 49.7202 51.2978 49.7192 51.4944C49.7178 51.7582 49.8927 52.2043 50.0978 52.46C50.3179 52.7343 50.815 53.0166 51.078 53.0166C51.307 53.0166 51.9358 52.805 52.1847 52.6442C52.4511 52.4721 52.4829 52.4739 52.8001 52.6785C53.0343 52.8295 53.1091 52.847 53.5202 52.847C54.2417 52.847 54.6937 52.5963 54.9351 52.062C55.1835 51.5125 55.1557 50.3274 54.886 49.9669C54.4906 49.4383 54.343 48.6975 54.4203 47.6296C54.4798 46.8078 54.5775 46.3614 54.8591 45.6254C55.4143 44.1747 55.9875 43.0527 56.9714 41.4908C57.195 41.1356 57.3781 40.8261 57.3781 40.8031C57.3781 40.78 57.3981 40.7527 57.4226 40.7423C57.4472 40.732 57.6976 40.3929 57.9792 39.9887C58.2608 39.5846 58.6272 39.1074 58.7934 38.9281C59.7759 37.8686 59.9623 37.2299 59.8675 35.2478C59.7461 32.7112 59.3309 31.5345 58.1649 30.423C57.9608 30.2284 57.7938 30.0629 57.7938 30.0552C57.7938 30.0475 58.0543 30.0398 58.3727 30.0381C59.0516 30.0343 59.4594 29.9192 60.1164 29.5459C61.2699 28.8904 61.9776 27.7428 62.4003 25.8426C62.4798 25.4854 62.5823 25.0885 62.6281 24.9607C62.7192 24.7062 62.9328 24.1722 63.0148 23.9936C63.0433 23.9314 63.2464 23.4609 63.4661 22.948C63.6858 22.435 63.889 21.9872 63.9175 21.9528C63.9538 21.9091 64.1264 21.9644 64.4888 22.1358C65.1998 22.4722 65.8149 22.618 66.5519 22.6249C67.2556 22.6316 67.724 22.5449 68.2281 22.3148C68.5468 22.1693 68.7005 22.0429 69.0182 21.6645C69.0497 21.627 69.0755 21.49 69.0755 21.3603C69.0755 21.0776 68.9042 20.9088 68.485 20.7783C68.0896 20.6552 67.432 20.2976 66.6933 19.8039C66.0142 19.35 65.7224 19.0501 65.2252 18.2952C64.7919 17.6374 63.8811 15.8049 63.6329 15.0917C63.4726 14.6309 63.0669 13.9164 62.7521 13.5403C62.343 13.0516 62.0038 12.7741 61.513 12.5262C61.1837 12.3599 61.0457 12.3222 60.7665 12.3222C59.5804 12.3222 58.7678 13.2344 58.8935 14.4251C58.9407 14.8728 58.9317 14.8778 58.3915 14.7008C57.6187 14.4479 56.659 14.1844 56.1677 14.0904C55.57 13.9761 55.5983 14.006 55.4492 13.331C55.3291 12.7865 55.0439 12.3895 54.4837 11.9866C53.9136 11.5767 52.8079 11.0746 51.7373 10.7395C50.9148 10.4821 50.719 10.4429 49.8966 10.3709C48.7874 10.2737 48.1878 10.1738 47.5355 9.97758C46.5522 9.6817 45.8959 9.33162 45.2758 8.77224C44.9359 8.46562 45.0213 8.64812 43.7234 5.45502C43.5425 5.00998 42.4498 2.49496 42.3237 2.23338C42.2787 2.14013 42.122 1.80948 41.9754 1.49862C41.6696 0.850282 41.2783 0.384501 40.9081 0.227941C40.7734 0.171082 40.4349 0.0967006 40.1556 0.0626756C39.638 -0.00034423 36.4653 -0.0254957 36.4039 0.032946ZM33.3006 0.935457C33.2026 0.978187 33.0823 1.01232 33.0334 1.01136C32.9844 1.0104 33.0378 0.975304 33.1521 0.933423C33.4232 0.834061 33.5299 0.83553 33.3006 0.935457ZM32.9146 1.04042C32.9146 1.05262 32.8732 1.07778 32.8225 1.09631C32.7696 1.11559 32.7458 1.10609 32.7666 1.0741C32.8014 1.02035 32.9146 0.994635 32.9146 1.04042ZM30.7473 1.18776C30.669 1.21981 30.6589 1.23739 30.7176 1.23942C30.7666 1.24117 30.8468 1.21789 30.8958 1.18776C31.0043 1.12101 30.9106 1.12101 30.7473 1.18776ZM30.3501 1.31493C30.2987 1.35382 30.2103 1.46188 30.1536 1.55514L30.0504 1.7247L30.2286 1.54751C30.3266 1.45007 30.4567 1.34274 30.5177 1.30905C30.6054 1.26056 30.6092 1.24734 30.536 1.24598C30.4851 1.24507 30.4015 1.2761 30.3501 1.31493ZM29.8047 2.06603C29.7474 2.20812 29.7642 2.2448 29.8342 2.13023C29.8689 2.07349 29.8848 2.01516 29.8694 2.00063C29.8542 1.98605 29.825 2.0155 29.8047 2.06603ZM29.6326 2.53158C29.6101 2.63338 29.4752 3.00217 29.3326 3.35112C29.0998 3.92073 28.9449 4.42003 29.0244 4.34435C29.0409 4.32869 29.1051 4.17795 29.1671 4.00935C29.229 3.84081 29.3779 3.44144 29.498 3.12182C29.618 2.80226 29.7066 2.49705 29.6947 2.44358C29.6819 2.38542 29.6569 2.42069 29.6326 2.53158ZM30.0283 4.43354C30.0103 4.47791 30.0056 4.57331 30.0178 4.64549C30.0341 4.74208 30.0479 4.72077 30.07 4.56483C30.1011 4.34542 30.0846 4.29365 30.0283 4.43354ZM28.9501 4.63548C28.9501 4.74428 28.9623 4.78882 28.9772 4.73439C28.9922 4.67996 28.9922 4.591 28.9772 4.53657C28.9623 4.48214 28.9501 4.52668 28.9501 4.63548ZM28.8022 5.21945C28.778 5.27636 28.759 5.3781 28.76 5.44553C28.7616 5.55721 28.7673 5.55913 28.8233 5.46751C28.8571 5.41224 28.876 5.3105 28.8655 5.24143C28.8481 5.12839 28.8418 5.12619 28.8022 5.21945ZM30.6757 2.90829C30.6768 3.00155 29.9124 5.57959 29.9275 5.5246C29.9426 5.46961 29.9416 5.3933 29.9253 5.35504C29.909 5.31678 30.6745 2.81503 30.6757 2.90829ZM28.7791 5.9216C28.7875 6.11602 28.8263 6.30554 28.8654 6.34267C28.9044 6.3798 28.9363 6.45198 28.9363 6.50302C28.9363 6.57485 28.9972 6.59667 29.2067 6.59967C29.4407 6.60306 29.5104 6.57429 29.7248 6.38585C29.861 6.26608 29.9537 6.15033 29.9308 6.12851C29.908 6.1067 30.0625 4.61022 30.0178 4.64549C29.9116 4.72942 29.6488 6.18018 29.6488 5.98252C29.6488 5.89447 29.6221 5.8224 29.5895 5.8224C29.5274 5.8224 29.5037 5.97094 29.5244 6.2285C29.5328 6.33187 29.4976 6.40021 29.414 6.44277C29.294 6.50392 29.2921 6.49674 29.3294 6.11523C29.3761 5.63685 29.2777 5.52324 29.1738 5.93556C29.1193 6.15163 29.0761 6.21804 28.9898 6.21804C28.8997 6.21804 28.8761 6.17526 28.8728 6.00609C28.8705 5.88955 28.845 5.74328 28.8162 5.6811C28.7803 5.60384 28.7686 5.67997 28.7791 5.9216ZM45.6071 9.33275C46.53 9.99601 47.9183 10.4253 49.5997 10.5674C50.6259 10.6541 50.9468 10.7148 51.7669 10.977C53.4555 11.5168 54.6885 12.2464 55.049 12.9189C55.1746 13.1532 55.3398 13.8291 55.2845 13.8818C55.2671 13.8984 54.7372 13.8697 54.1071 13.8181C52.4701 13.6841 49.7606 13.7245 48.709 13.8987C47.0805 14.1685 44.7571 14.7924 43.9588 15.1743C43.1845 15.5446 43.0118 15.5717 41.4353 15.5697C40.02 15.568 40.0071 15.5668 39.5649 15.4089C37.7561 14.7629 35.8772 14.3221 34.1022 14.1273C33.0562 14.0125 30.634 14.0709 29.122 14.2473C28.8485 14.2792 28.6128 14.2939 28.5981 14.2799C28.5384 14.2231 28.8371 13.0691 28.9667 12.8559C29.2475 12.3938 30.1017 11.7785 30.5825 11.6919C31.2162 11.5778 34.071 11.265 36.4476 11.0491C37.7445 10.9314 37.6821 10.9407 40.5446 10.4385C42.8682 10.0309 43.5947 9.91117 44.521 9.7831C45.0464 9.71053 45.2354 9.58415 45.2354 9.30556C45.2354 9.19281 45.2463 9.10051 45.2597 9.10051C45.2731 9.10056 45.4294 9.20507 45.6071 9.33275ZM23.9868 12.7069C24.1221 12.773 24.3298 12.9348 24.4483 13.0667C24.8078 13.4665 24.8914 13.9217 24.7878 14.9151C24.7506 15.2722 24.7481 15.2763 24.5109 15.3673C23.9049 15.5998 23.8324 15.7706 23.8832 16.8465L23.9193 17.6121L24.2172 17.8921C24.7907 18.4311 24.8434 18.5275 24.9017 19.1446C24.9723 19.8919 25.1094 20.2829 25.3487 20.419C25.3899 20.4425 25.4697 20.5951 25.526 20.7582C25.5823 20.9212 25.7341 21.2707 25.8633 21.535L26.0982 22.0154L26.0667 22.8067C26.0493 23.2419 26.0017 23.8172 25.9609 24.0851C25.8905 24.5464 25.8937 24.5915 26.022 24.9329C26.2031 25.4154 26.7652 26.4814 27.151 27.0739C27.5532 27.6919 27.9387 28.2274 27.9986 28.2514C28.1411 28.3085 28.015 28.5494 27.6723 28.8749C27.0269 29.488 26.5012 29.7491 25.7678 29.8206C24.6991 29.9248 23.3463 29.1645 22.6857 28.0885C22.2975 27.4561 22.0688 26.8049 21.7245 25.3516C21.6731 25.1348 21.3225 24.2253 20.9455 23.3303L20.2598 21.7031L20.4565 21.5511C21.1547 21.0115 22.0119 19.9175 22.5062 18.935C22.9338 18.085 23.1952 17.404 23.1208 17.3332C23.0172 17.2346 22.9127 17.3875 22.6443 18.0307C21.7402 20.1964 20.4485 21.602 18.8528 22.1563C17.5685 22.6025 16.1199 22.4571 15.4387 21.8136C15.1942 21.5827 15.1553 21.516 15.1715 21.3555C15.1919 21.1531 15.1887 21.1551 15.9903 20.8197C16.5352 20.5916 17.8717 19.735 18.1921 19.4084C18.571 19.0223 19.0069 18.3906 19.4593 17.5722C19.8501 16.8651 19.9394 16.6751 20.5649 15.2196C20.7552 14.777 21.0101 14.2593 21.1315 14.0691C21.4272 13.6058 22.1149 12.9578 22.5532 12.7295C22.8787 12.56 22.9454 12.5458 23.3251 12.5655C23.5948 12.5794 23.8272 12.6291 23.9868 12.7069ZM61.2156 12.6396C61.5968 12.7909 62.1208 13.1732 62.4301 13.5256C62.8164 13.9655 63.0628 14.3963 63.4555 15.3178C64.616 18.0408 65.3926 19.2231 66.5149 19.9756C67.2636 20.4777 67.933 20.843 68.3414 20.9724C68.7951 21.116 68.9014 21.2528 68.7787 21.5347C68.5171 22.1358 67.3191 22.5227 66.1483 22.3842C64.0437 22.1353 62.4619 20.6881 61.3065 17.9543C61.0452 17.3362 60.9769 17.2389 60.8737 17.3372C60.8237 17.3848 60.864 17.5435 61.0308 17.9561C61.5835 19.324 62.2715 20.3815 63.1428 21.2024L63.7196 21.746L63.6064 21.9865C63.4374 22.3459 62.3911 24.8677 62.3164 25.0957C62.2808 25.2045 62.1962 25.5565 62.1284 25.878C61.9786 26.5883 61.7688 27.1993 61.4974 27.716C61.0883 28.4948 60.7215 28.8969 60.0339 29.3203C59.0543 29.9235 58.1272 29.9905 57.2 29.5251C56.8046 29.3266 56.6748 29.226 56.164 28.7219L55.8701 28.432L55.9896 28.2758C56.8773 27.1156 57.7243 25.6564 58.0028 24.8077C58.0919 24.5361 58.0968 24.4403 58.0377 24.1295C57.9998 23.9304 57.9415 23.2334 57.9082 22.5806C57.8749 21.9278 57.8095 21.1927 57.7629 20.9472C57.6873 20.5491 57.6885 20.4601 57.7738 20.1276C57.8975 19.6453 57.9488 19.5998 58.0273 19.9028C58.1314 20.3045 58.2224 20.4309 58.421 20.4496C58.8111 20.4864 59.0151 20.0215 59.108 18.8843C59.1712 18.1093 59.208 15.2711 59.167 14.3287C59.1286 13.4453 59.466 12.8838 60.1919 12.6232C60.4608 12.5267 60.9509 12.5345 61.2156 12.6396ZM53.8748 14.0443C55.7008 14.198 56.296 14.3053 57.704 14.7339C58.2651 14.9047 58.7669 15.0909 58.8329 15.1528C58.9381 15.2515 58.9539 15.3542 58.9722 16.0538L58.9927 16.8434L58.7131 17.1394C58.0921 17.7968 57.9795 18.0378 57.7086 19.2896C57.195 21.6626 55.9867 23.4351 54.3464 24.2214C53.531 24.6122 52.3902 24.7865 50.9653 24.7379C49.0316 24.6719 47.8101 24.2384 46.0428 22.9905C44.87 22.1624 43.6045 20.8412 43.2141 20.0372C42.974 19.5427 42.7778 18.8102 42.7372 18.2568C42.7202 18.0237 42.6969 17.6988 42.6855 17.5348C42.6609 17.1812 42.6139 17.1182 42.2549 16.9576C41.8406 16.7722 41.2048 16.7794 40.857 16.9735C40.7126 17.054 40.5666 17.1531 40.5325 17.1938C40.4984 17.2345 40.4558 17.6746 40.4378 18.172C40.396 19.3262 40.2404 19.8821 39.7388 20.6694C39.2617 21.4181 37.9291 22.7518 36.9783 23.432C35.1724 24.724 33.7286 25.1538 31.4464 25.0787C30.2679 25.0399 29.7325 24.942 29.0732 24.645C28.4574 24.3675 28.0656 24.0909 27.5383 23.5615C26.6172 22.6368 25.863 21.2472 25.549 19.8959C25.3016 18.8315 25.0622 18.3647 24.4697 17.7918L24.1677 17.4997L24.162 16.6589C24.157 15.9107 24.1682 15.81 24.2634 15.7433C24.4124 15.639 26.0636 15.0691 26.7097 14.8989C27.3395 14.7331 28.3822 14.5664 29.6192 14.4339C30.7596 14.3118 33.7799 14.2924 34.4881 14.4027C36.537 14.7219 37.8524 15.0451 39.5055 15.6354C39.9347 15.7887 39.9978 15.7952 41.2463 15.8153C42.7689 15.8397 43.1338 15.7854 44.0222 15.4012C45.3247 14.8382 47.9812 14.1852 49.6294 14.0231C50.4312 13.9442 52.8276 13.9561 53.8748 14.0443ZM50.187 14.4727C48.2089 14.5874 46.2955 15.0262 45.2057 15.6152C45.0261 15.7123 44.7156 15.9465 44.5157 16.1357C43.4795 17.1163 43.3598 18.5499 44.1738 20.2318C44.5537 21.017 45.413 21.9624 46.333 22.6073C47.2338 23.2387 48.6883 23.8532 49.8983 24.1136C50.5162 24.2466 52.0758 24.248 52.6793 24.1162C53.2843 23.984 54.2001 23.6329 54.6021 23.3788C55.497 22.8134 56.2938 21.6641 56.792 20.2198C57.514 18.1268 57.3004 16.6082 56.1242 15.473C55.3103 14.6875 54.7022 14.5519 51.5294 14.4487C51.2029 14.4381 50.5987 14.4489 50.187 14.4727ZM53.6967 14.752C54.477 14.8445 55.1286 14.9803 55.3826 15.1033C55.9595 15.3827 56.5468 16.1102 56.8209 16.8846C56.9692 17.3039 56.9749 17.3647 56.9459 18.2003C56.9121 19.1745 56.774 19.8087 56.3965 20.7238C56.0049 21.6735 55.2865 22.6841 54.7246 23.0759C54.1473 23.4785 53.355 23.7893 52.5092 23.9451C51.9192 24.0538 50.7132 24.0499 50.045 23.9372C48.9931 23.7599 47.6397 23.2323 46.6605 22.6178C46.1449 22.2943 45.2959 21.5233 44.9122 21.0302C44.0439 19.9145 43.6625 18.5222 43.9367 17.4691C44.0549 17.0147 44.1415 16.8449 44.4524 16.4569C45.1591 15.575 47.1207 14.9159 49.6887 14.6973C50.4191 14.6352 53.0095 14.6705 53.6967 14.752ZM30.9848 14.8381C29.3327 14.9607 28.3181 15.1342 27.7191 15.3967C26.9201 15.7467 26.1605 16.8799 26.0214 17.9294C25.9455 18.5017 25.9898 19.0035 26.1853 19.7828C26.6355 21.578 27.6956 23.1795 28.8889 23.8674C29.3586 24.1383 30.3507 24.4425 31.0596 24.533C32.7742 24.752 34.7764 24.2396 36.5336 23.1321C37.1376 22.7514 38.182 21.7792 38.5828 21.2246C39.5927 19.8273 39.8498 18.0131 39.1899 16.9412C38.9669 16.5792 38.4865 16.0947 38.1412 15.8838C37.2333 15.3292 35.5747 14.9398 33.5678 14.8099C32.5338 14.7431 32.2204 14.7465 30.9848 14.8381ZM34.3697 15.0636C35.9251 15.2348 37.1756 15.5535 37.9617 15.9788C38.4897 16.2646 39.0238 16.8819 39.2022 17.4127C39.5728 18.5155 39.1945 20.1251 38.2865 21.3089C37.8805 21.8382 37.0584 22.5863 36.4712 22.9607C35.876 23.3402 34.7928 23.846 34.1615 24.0392C33.277 24.3099 32.7434 24.3759 31.6728 24.3469C30.5717 24.317 30.026 24.2008 29.1861 23.8174C27.8983 23.2293 26.7267 21.4365 26.3177 19.4281C26.1041 18.3791 26.185 17.576 26.5838 16.7891C26.811 16.3408 27.3771 15.7514 27.7561 15.5686C28.1068 15.3994 29.2544 15.1827 30.2723 15.0935C30.6969 15.0562 31.0977 15.0187 31.163 15.0099C31.5749 14.9548 33.7056 14.9905 34.3697 15.0636ZM42.222 17.2035C42.4025 17.2927 42.415 17.3181 42.415 17.5956C42.415 18.8183 42.811 20.0735 43.4587 20.904C43.9801 21.5725 45.3122 22.7942 46.0968 23.3234C47.3876 24.194 48.2394 24.5804 49.4215 24.8315C49.9059 24.9344 50.1745 24.9511 51.3216 24.9501C52.7533 24.9489 53.3387 24.8733 54.1328 24.587C54.6379 24.4049 55.46 23.8593 55.9033 23.412C56.5009 22.809 57.1269 21.8487 57.4032 21.1111C57.5 20.8526 57.5641 21.2335 57.6244 22.4252C57.6587 23.1013 57.7196 23.8412 57.7598 24.0694C57.8285 24.4586 57.8242 24.5093 57.6912 24.8853C57.4061 25.6912 56.5115 27.207 55.7162 28.2317C55.4587 28.5635 55.2989 28.6573 54.5931 28.8912C53.4552 29.268 52.7682 30.2693 52.4471 32.0186C52.0708 34.0688 51.7419 35.3135 51.1921 36.7671C50.612 38.3007 50.0223 39.2971 49.2516 40.0453C49.0274 40.2629 48.8152 40.5233 48.7799 40.6239C48.631 41.0483 48.0495 41.6576 47.4487 42.0187C46.9939 42.292 46.3139 42.5362 45.5917 42.6855C45.0266 42.8024 44.853 42.8084 41.9994 42.8095C39.0966 42.8106 38.9808 42.8065 38.3773 42.6816C36.8395 42.3635 35.7589 41.6976 35.2833 40.7748C35.1597 40.5351 34.9545 40.2643 34.7516 40.0735C34.149 39.5065 33.7005 38.8368 33.1998 37.7562C32.5208 36.2909 31.9164 34.198 31.5185 31.9346C31.3836 31.1668 31.3296 30.9888 31.0814 30.4934C30.6045 29.5409 30.0819 29.0991 29.0505 28.7761C28.5923 28.6326 28.4541 28.5082 27.9128 27.7522C27.1875 26.7393 26.5829 25.6825 26.3 24.9328C26.1573 24.5548 26.1484 24.4857 26.2056 24.1981C26.2403 24.0234 26.2852 23.5817 26.3053 23.2164C26.3254 22.8512 26.3607 22.5523 26.3837 22.5523C26.4067 22.5523 26.5286 22.7113 26.6544 22.9056C26.9565 23.3718 27.7925 24.1918 28.2797 24.4998C29.2711 25.1265 30.1151 25.3218 31.832 25.3218C33.7378 25.3218 35.0583 24.9641 36.4773 24.0634C37.8219 23.2099 39.0948 22.0252 39.8922 20.885C40.4452 20.0944 40.6811 19.3041 40.7442 18.0307L40.7821 17.2677L40.9899 17.1653C41.2478 17.0382 41.9302 17.0594 42.222 17.2035ZM58.9061 18.3133C58.8351 19.5204 58.6645 20.235 58.4473 20.235C58.3865 20.235 58.0313 19.1857 58.0313 19.006C58.0313 18.5055 58.758 17.1965 58.9244 17.3972C58.9427 17.4192 58.9344 17.8315 58.9061 18.3133ZM28.3639 28.7408C28.3859 28.7956 28.3373 28.855 28.2247 28.9104C27.9935 29.0242 27.9695 29.0184 28.0525 28.8684C28.1698 28.6564 28.3071 28.6001 28.3639 28.7408ZM55.8445 28.75C55.9719 28.8598 55.9848 28.9391 55.8753 28.9391C55.7478 28.9391 55.5754 28.7917 55.6209 28.7216C55.6775 28.6344 55.716 28.6393 55.8445 28.75ZM29.145 29.0524C29.9167 29.3052 30.4023 29.7368 30.8296 30.5499C31.027 30.9257 31.1083 31.1718 31.1987 31.667C31.7485 34.6809 32.4828 37.0956 33.2704 38.4797L33.45 38.7954L33.2778 38.9682C33.0788 39.1678 32.8809 39.5237 32.7612 39.8972C32.3581 41.1559 32.2795 44.1585 32.5931 46.319C32.8214 47.8915 33.052 48.8969 33.345 49.5971C33.4751 49.908 33.685 50.4485 33.8115 50.7983C34.0241 51.3863 34.0367 51.4553 33.9787 51.7129C33.8456 52.3037 33.3509 52.7657 32.8594 52.7581C32.5259 52.7529 31.92 52.5031 31.6921 52.2766C31.6011 52.1862 31.5009 52.1123 31.4693 52.1123C31.4377 52.1123 31.3222 52.212 31.2127 52.3338C31.0609 52.5026 30.9465 52.5688 30.732 52.6123C30.3802 52.6834 29.9356 52.6103 29.6652 52.4369C29.0551 52.0456 28.9316 50.6811 29.4342 49.8865C29.7225 49.4308 29.827 48.967 29.8267 48.1442C29.8263 46.9598 29.5776 45.9502 28.9245 44.4821C28.142 42.7231 26.3397 39.8344 25.3454 38.7453C24.9451 38.3068 24.7434 37.9971 24.5659 37.5481C24.3433 36.9852 24.3086 36.5809 24.3669 35.2273C24.4215 33.96 24.5161 33.2711 24.7297 32.5846C25.0799 31.4596 25.8011 30.5835 27.0044 29.8214C27.5257 29.4911 28.6049 28.9391 28.729 28.9391C28.7675 28.9391 28.9547 28.9901 29.145 29.0524ZM55.8503 29.2006C57.1401 29.8161 58.1144 30.5722 58.6792 31.3956C59.18 32.1259 59.4112 32.862 59.5461 34.1566C59.6527 35.1801 59.6668 36.6575 59.5738 37.078C59.4714 37.5407 59.0884 38.2453 58.7134 38.6605C57.6581 39.8294 55.8997 42.6058 55.134 44.3125C54.4181 45.9081 54.1657 46.8812 54.1518 48.0994C54.1422 48.9371 54.2164 49.2741 54.5331 49.8323C55.0014 50.6576 54.9825 51.7643 54.4912 52.2819C54.2491 52.537 54.0017 52.6292 53.5489 52.6331C53.1302 52.6366 52.8967 52.5412 52.7423 52.3034C52.6741 52.1983 52.5905 52.1123 52.5567 52.1123C52.5228 52.1123 52.3993 52.1924 52.2822 52.2903C51.9784 52.5442 51.4806 52.7465 51.1481 52.7512C50.6239 52.7588 50.1428 52.3297 50.0142 51.7396C49.9364 51.3831 49.9715 51.2579 50.5538 49.8146C50.9286 48.8856 51.151 47.9563 51.3768 46.3755C51.5534 45.1395 51.5962 44.2316 51.5514 42.6734C51.4903 40.5489 51.2429 39.4558 50.7205 39.0016L50.529 38.8351L50.889 38.1119C51.626 36.6317 52.2746 34.4716 52.7174 32.0225C52.881 31.118 52.9608 30.8721 53.2585 30.3567C53.5456 29.8595 53.844 29.5263 54.16 29.3499C54.4295 29.1996 55.0891 28.9474 55.2269 28.942C55.2683 28.9404 55.5489 29.0568 55.8503 29.2006Z" fill="#FEFEFE"/>
<path d="M6.88248 41.2559L4.14451 43.0981L6.37314 46.8268L5.73594 47.2556L3.50731 43.5268L0.550308 45.5163L0.0947329 44.7541L7.06411 40.065L10.0192 45.0092L9.38199 45.4379L6.88248 41.2559Z" fill="#FEFEFE"/>
<path d="M9.83939 49.6585C10.2747 49.516 10.6976 49.5187 11.1081 49.6664C11.5239 49.8202 11.9217 50.1189 12.3017 50.5624L11.7057 51.1372L11.5816 50.9739C11.1496 50.4697 10.6644 50.2164 10.1261 50.2141C9.5878 50.2118 9.05377 50.4661 8.524 50.977L6.20914 53.2095L5.65482 52.5625L10.1982 48.1808L10.7291 48.8005L9.83939 49.6585Z" fill="#FEFEFE"/>
<path d="M14.8241 52.8633L15.4649 53.4249L11.5871 58.4053L10.9464 57.8437L14.8241 52.8633ZM15.9968 52.0591C15.8644 51.9431 15.79 51.7982 15.7735 51.6245C15.757 51.4507 15.8003 51.2975 15.9035 51.165C16.0018 51.0387 16.1329 50.9678 16.2969 50.9522C16.4609 50.9366 16.609 50.9868 16.7414 51.1028C16.8737 51.2188 16.9482 51.3637 16.9647 51.5375C16.9861 51.705 16.9477 51.8518 16.8494 51.9781C16.7413 52.117 16.6052 52.1942 16.4413 52.2098C16.2773 52.2254 16.1292 52.1752 15.9968 52.0591Z" fill="#FEFEFE"/>
<path d="M22.4946 62.2713L17.9971 59.5052C17.7234 60.1061 17.683 60.7049 17.8758 61.3019C18.0725 61.8918 18.4672 62.3691 19.06 62.7337C19.3939 62.939 19.7332 63.068 20.0778 63.1204C20.4262 63.1659 20.7679 63.1321 21.1027 63.0192L21.2469 63.7551C20.8473 63.9032 20.4247 63.9435 19.9792 63.8758C19.5405 63.8123 19.1064 63.6486 18.6771 63.3845C18.1252 63.0451 17.6997 62.624 17.4009 62.1212C17.1126 61.6157 16.9662 61.0754 16.9617 60.5005C16.9572 59.9255 17.1026 59.3678 17.3979 58.8272C17.6933 58.2866 18.0704 57.8714 18.5292 57.5814C18.9949 57.2957 19.4905 57.155 20.0162 57.1594C20.5486 57.1679 21.0636 57.3252 21.561 57.6311C22.0585 57.9371 22.4396 58.3309 22.7044 58.8127C22.9693 59.2945 23.0971 59.8187 23.088 60.3852C23.0828 60.9447 22.9305 61.4983 22.6313 62.0459L22.4946 62.2713ZM21.2101 58.2735C20.6922 57.955 20.1621 57.8588 19.6198 57.9848C19.0882 58.1081 18.6489 58.4288 18.302 58.9471L22.1146 61.292C22.3661 60.715 22.4068 60.1491 22.2365 59.5942C22.0769 59.0364 21.7348 58.5962 21.2101 58.2735Z" fill="#FEFEFE"/>
<path d="M29.9112 61.2998C30.6577 61.5646 31.1798 61.9959 31.4776 62.5935C31.7853 63.1863 31.807 63.9023 31.5424 64.7416L30.4422 68.2323L29.6393 67.9474L30.7142 64.5368C30.9114 63.9112 30.9072 63.3795 30.7014 62.9417C30.4957 62.5039 30.1064 62.1834 29.5334 61.9801C28.8925 61.7527 28.3223 61.7667 27.8226 62.0221C27.333 62.2725 26.9811 62.7373 26.7671 63.4163L25.7715 66.5752L24.9685 66.2903L26.8659 60.2702L27.635 60.5431L27.2851 61.6532C27.6191 61.3646 28.0097 61.1892 28.4567 61.1273C28.9137 61.0604 29.3986 61.1179 29.9112 61.2998Z" fill="#FEFEFE"/>
<path d="M41.468 60.776L40.5246 69.6299L39.7144 69.5327L39.8467 68.2918C39.5476 68.6829 39.1756 68.9646 38.7309 69.1368C38.2942 69.31 37.8136 69.3652 37.2894 69.3023C36.7016 69.2318 36.1838 69.0327 35.7361 68.7051C35.2883 68.3775 34.9552 67.9548 34.7369 67.4372C34.5185 66.9195 34.4424 66.3505 34.5085 65.73C34.5746 65.1095 34.7686 64.5728 35.0903 64.12C35.4121 63.6671 35.8253 63.338 36.3298 63.1326C36.8352 62.9193 37.3818 62.8479 37.9696 62.9184C38.478 62.9794 38.9233 63.1416 39.3055 63.405C39.6965 63.6613 40.0014 64.0081 40.2203 64.4452L40.6221 60.6746L41.468 60.776ZM37.441 68.5591C37.8779 68.6115 38.2816 68.5593 38.6523 68.4023C39.0318 68.2383 39.3407 67.9813 39.5792 67.6313C39.8255 67.2822 39.9741 66.869 40.025 66.3917C40.0758 65.9144 40.0179 65.4764 39.8512 65.0777C39.6925 64.68 39.445 64.3603 39.1088 64.1185C38.7813 63.8698 38.3991 63.7192 37.9623 63.6668C37.5175 63.6135 37.1053 63.6688 36.7258 63.8327C36.3552 63.9897 36.0466 64.2427 35.8003 64.5918C35.5619 64.9419 35.4172 65.3556 35.3664 65.8329C35.3155 66.3102 35.3695 66.7477 35.5282 67.1454C35.6949 67.544 35.9419 67.8677 36.2694 68.1165C36.6056 68.3582 36.9962 68.5058 37.441 68.5591Z" fill="#FEFEFE"/>
<path d="M46.5252 69.3196C46.0148 69.3603 45.5193 69.3276 45.0386 69.2215C44.5653 69.1068 44.1892 68.9482 43.9102 68.7457L44.2455 68.0449C44.5233 68.2314 44.8664 68.3765 45.2748 68.4804C45.6826 68.5762 46.1018 68.607 46.5324 68.5726C47.1066 68.5268 47.523 68.4053 47.7817 68.2082C48.0478 68.0023 48.1693 67.7359 48.1461 67.4087C48.1297 67.1773 48.0412 67.0037 47.8806 66.8882C47.7195 66.7646 47.5211 66.6801 47.2853 66.6347C47.0489 66.5813 46.7371 66.538 46.3498 66.5047C45.8326 66.4497 45.4151 66.3867 45.0973 66.3157C44.779 66.2368 44.4997 66.0865 44.2594 65.8649C44.0271 65.6427 43.896 65.3201 43.866 64.8972C43.8287 64.3705 44.0175 63.9221 44.4323 63.552C44.8472 63.1818 45.4453 62.9656 46.2269 62.9032C46.6336 62.8708 47.0442 62.8942 47.4589 62.9735C47.8729 63.0447 48.2178 63.1577 48.4934 63.3122L48.1709 64.0241C47.6271 63.7064 46.9963 63.5761 46.2786 63.6334C45.7363 63.6766 45.3324 63.8052 45.0669 64.0189C44.8093 64.2321 44.6916 64.4943 44.7136 64.8055C44.7306 65.0449 44.8199 65.2304 44.9816 65.3619C45.1513 65.4928 45.3543 65.585 45.5907 65.6384C45.8264 65.6838 46.1502 65.7261 46.562 65.7655C47.0712 65.8212 47.4807 65.8848 47.7906 65.9564C48.1004 66.028 48.3712 66.1709 48.6029 66.3851C48.8346 66.5994 48.9649 66.91 48.9937 67.317C49.0327 67.8676 48.8326 68.3249 48.3932 68.689C47.9613 69.0445 47.3386 69.2547 46.5252 69.3196Z" fill="#FEFEFE"/>
<path d="M59.7259 59.063C60.2666 58.8219 60.8062 58.7302 61.3448 58.7876C61.8804 58.8376 62.3622 59.0341 62.7903 59.3771C63.2184 59.7201 63.5474 60.1817 63.7771 60.7618C64.0069 61.342 64.0874 61.9143 64.0186 62.4788C63.9498 63.0432 63.7463 63.5496 63.408 63.998C63.0698 64.4463 62.6303 64.791 62.0896 65.032C61.6073 65.247 61.1313 65.3367 60.6616 65.301C60.1992 65.2621 59.773 65.0977 59.3831 64.8077L59.8426 65.968L59.0973 66.3003L55.819 58.0218L56.5971 57.6749L57.9933 61.2005C58.0842 60.7137 58.2777 60.2905 58.5738 59.931C58.8742 59.5608 59.2582 59.2714 59.7259 59.063ZM61.7564 64.3535C62.1583 64.1744 62.4868 63.9186 62.742 63.586C62.9942 63.2461 63.1425 62.8606 63.1867 62.4296C63.2383 61.9953 63.1757 61.555 62.9989 61.1087C62.8222 60.6624 62.5696 60.3068 62.2412 60.0419C61.9201 59.7738 61.5583 59.62 61.1559 59.5806C60.7505 59.5338 60.3469 59.6 59.945 59.7792C59.5358 59.9616 59.2051 60.2227 58.9529 60.5627C58.705 60.892 58.5553 61.2737 58.5038 61.708C58.4595 62.139 58.5258 62.5777 58.7025 63.024C58.8792 63.4703 59.1281 63.8275 59.4492 64.0956C59.7777 64.3605 60.1409 64.518 60.539 64.5681C60.9414 64.6075 61.3473 64.5359 61.7564 64.3535Z" fill="#FEFEFE"/>
<path d="M66.5287 54.9315C67.1954 54.4472 67.8195 54.2505 68.401 54.3414C68.9783 54.4256 69.4859 54.8072 69.9241 55.4861L72.0453 58.7731L71.3851 59.2527L70.8515 58.4259C70.8741 58.8143 70.7831 59.1963 70.5787 59.5719C70.3807 59.9428 70.0746 60.2787 69.6604 60.5797C69.0908 60.9934 68.5467 61.1814 68.0279 61.1436C67.5092 61.1058 67.1001 60.855 66.8008 60.3912C66.5102 59.9408 66.4313 59.465 66.5641 58.9637C66.7034 58.4577 67.1161 57.9555 67.8021 57.4571L69.4235 56.2793L69.2152 55.9566C68.9203 55.4995 68.5739 55.2427 68.1761 55.1861C67.774 55.1228 67.3367 55.2628 66.8642 55.606C66.5406 55.8411 66.2668 56.1239 66.0428 56.4545C65.8145 56.7783 65.6564 57.1153 65.5686 57.4654L64.9131 57.1567C65.0245 56.7401 65.2224 56.3396 65.5068 55.9553C65.7868 55.5643 66.1275 55.223 66.5287 54.9315ZM69.4028 59.9374C69.7911 59.6553 70.0659 59.3224 70.2271 58.9388C70.384 58.5484 70.4176 58.129 70.3279 57.6808L69.7683 56.8136L68.1664 57.9774C67.2926 58.6121 67.0596 59.2455 67.4674 59.8773C67.6669 60.1865 67.9385 60.3496 68.2822 60.3665C68.6215 60.3767 68.995 60.2337 69.4028 59.9374Z" fill="#FEFEFE"/>
<path d="M73.4571 48.5257C73.9901 47.9398 74.5748 47.6413 75.2112 47.6302C75.8474 47.6073 76.4729 47.9107 77.0876 48.5404L79.6445 51.1592L79.0711 51.7894L76.5729 49.2307C76.1147 48.7613 75.655 48.5248 75.1939 48.5213C74.7329 48.5178 74.2978 48.7409 73.8886 49.1906C73.431 49.6935 73.2101 50.2389 73.2259 50.8267C73.2415 51.4029 73.498 51.9457 73.9954 52.4551L76.3091 54.8249L75.7358 55.4551L71.3263 50.9387L71.8754 50.3352L72.6886 51.168C72.5765 50.7217 72.585 50.2732 72.7143 49.8226C72.8434 49.3603 73.091 48.928 73.4571 48.5257Z" fill="#FEFEFE"/>
<path d="M80.9649 43.5075L81.3365 45.5485L82.8299 46.5533L82.3928 47.2846L75.0053 42.3141L75.4424 41.5828L80.4504 44.9523L79.526 39.7954L80.0678 38.889L80.8232 42.6468L85.4341 42.1962L84.8985 43.0923L80.9649 43.5075Z" fill="#FEFEFE"/>
</svg>
